<svg width="16" height="16" viewBox="0 0 16 16" fill="none" xmlns="http://www.w3.org/2000/svg">
<path fill-rule="evenodd" clip-rule="evenodd" d="M4.74908 3.31499C4.74908 4.03187 4.20325 4.61201 3.34969 4.61201C2.52934 4.61201 1.98346 4.03187 2.00038 3.31499C1.98346 2.56327 2.52928 2 3.36604 2C4.20326 2 4.73273 2.56327 4.74908 3.31499ZM2.06901 13.9869V5.63664H4.6641V13.9863L2.06901 13.9869Z" stroke="#DCE5FF"/>
<path fill-rule="evenodd" clip-rule="evenodd" d="M6.74386 8.30144C6.74386 7.25994 6.70955 6.372 6.67523 5.63773H8.92935L9.04916 6.78166H9.10041C9.44195 6.25218 10.2955 5.45032 11.6786 5.45032C13.3858 5.45032 14.6665 6.57737 14.6665 9.03519V13.9879H12.0713V9.36039C12.0713 8.28405 11.6961 7.55024 10.7569 7.55024C10.0395 7.55024 9.61295 8.0454 9.44247 8.52317C9.37384 8.69423 9.34004 8.93282 9.34004 9.17246V13.9879H6.7449V8.30144H6.74386Z" stroke="#DCE5FF"/>
</svg>
