<svg width="16" height="16" viewBox="0 0 16 16" fill="none" xmlns="http://www.w3.org/2000/svg">
<g clip-path="url(#clip0_84_724)">
<path fill-rule="evenodd" clip-rule="evenodd" d="M1.89368 6.73543C5.38334 5.18307 7.71032 4.15967 8.87463 3.66521C12.199 2.25343 12.8897 2.00818 13.34 2.00009C13.439 1.99831 13.6604 2.02336 13.8038 2.14219C13.9249 2.24252 13.9583 2.37805 13.9742 2.47318C13.9901 2.56831 14.01 2.785 13.9942 2.95433C13.8141 4.88695 13.0346 9.57691 12.638 11.7415C12.4702 12.6574 12.1398 12.9645 11.8199 12.9945C11.1248 13.0599 10.5969 12.5255 9.92364 12.0749C8.87007 11.3697 8.27488 10.9308 7.25221 10.2427C6.07035 9.44746 6.8365 9.0104 7.51004 8.29612C7.68631 8.10919 10.7492 5.26471 10.8084 5.00668C10.8159 4.9744 10.8227 4.85411 10.7527 4.79059C10.6828 4.72707 10.5794 4.74879 10.5049 4.76606C10.3992 4.79055 8.71615 5.9264 5.45566 8.1736C4.97792 8.50854 4.54521 8.67174 4.1575 8.66319C3.73009 8.65376 2.90793 8.41644 2.29673 8.21359C1.54708 7.96478 0.951268 7.83324 1.00315 7.41069C1.03017 7.1906 1.32702 6.96551 1.89368 6.73543Z" stroke="#DCE5FF"/>
</g>
<defs>
<clipPath id="clip0_84_724">
<rect width="16" height="16" fill="white"/>
</clipPath>
</defs>
</svg>
