<svg width="24" height="24" viewBox="0 0 24 24" fill="none" xmlns="http://www.w3.org/2000/svg">
<circle cx="8.85716" cy="8.71429" r="4.71429" stroke="#DCE5FF"/>
<circle cx="8.85716" cy="8.71429" r="4.71429" stroke="#DCE5FF"/>
<circle cx="8.85716" cy="8.71429" r="4.71429" stroke="#DCE5FF"/>
<path d="M16.7143 19.7143C16.7143 16.3714 14.6266 13.516 11.6838 12.381M1 19.7143C1 16.3714 3.08771 13.516 6.03046 12.381" stroke="#DCE5FF"/>
<path d="M16.7143 19.7143C16.7143 16.3714 14.6266 13.516 11.6838 12.381M1 19.7143C1 16.3714 3.08771 13.516 6.03046 12.381" stroke="#DCE5FF"/>
<path d="M16.7143 19.7143C16.7143 16.3714 14.6266 13.516 11.6838 12.381M1 19.7143C1 16.3714 3.08771 13.516 6.03046 12.381" stroke="#DCE5FF"/>
<path d="M12 12.2282C12.8341 12.9747 13.9355 13.4286 15.1429 13.4286C17.7465 13.4286 19.8572 11.3179 19.8572 8.71429C19.8572 6.11066 17.7465 4 15.1429 4C13.9355 4 12.8341 4.45391 12 5.20041" stroke="#DCE5FF"/>
<path d="M12 12.2282C12.8341 12.9747 13.9355 13.4286 15.1429 13.4286C17.7465 13.4286 19.8572 11.3179 19.8572 8.71429C19.8572 6.11066 17.7465 4 15.1429 4C13.9355 4 12.8341 4.45391 12 5.20041" stroke="#DCE5FF"/>
<path d="M12 12.2282C12.8341 12.9747 13.9355 13.4286 15.1429 13.4286C17.7465 13.4286 19.8572 11.3179 19.8572 8.71429C19.8572 6.11066 17.7465 4 15.1429 4C13.9355 4 12.8341 4.45391 12 5.20041" stroke="#DCE5FF"/>
<path d="M23 19.7143C23 16.3714 20.9123 13.516 17.9695 12.381" stroke="#DCE5FF"/>
<path d="M23 19.7143C23 16.3714 20.9123 13.516 17.9695 12.381" stroke="#DCE5FF"/>
<path d="M23 19.7143C23 16.3714 20.9123 13.516 17.9695 12.381" stroke="#DCE5FF"/>
</svg>
