<svg width="24" height="24" viewBox="0 0 24 24" fill="none" xmlns="http://www.w3.org/2000/svg">
<path d="M8 16.5V21H20V3H8V7.5" stroke="#DCE5FF"/>
<path d="M14.3536 12.3536C14.5488 12.1583 14.5488 11.8417 14.3536 11.6464L11.1716 8.46447C10.9763 8.2692 10.6597 8.2692 10.4645 8.46447C10.2692 8.65973 10.2692 8.97631 10.4645 9.17157L13.2929 12L10.4645 14.8284C10.2692 15.0237 10.2692 15.3403 10.4645 15.5355C10.6597 15.7308 10.9763 15.7308 11.1716 15.5355L14.3536 12.3536ZM2 12V12.5L14 12.5V12V11.5L2 11.5L2 12Z" fill="#DCE5FF"/>
</svg>
