<svg width="24" height="24" viewBox="0 0 24 24" fill="none" xmlns="http://www.w3.org/2000/svg">
<path d="M10.6436 2H8.39721C7.75993 2 7.25011 2.1856 6.86774 2.55679C6.50131 2.91314 6.31809 3.39569 6.31809 4.00446V8.99332C6.31809 9.63177 6.09505 10.1218 5.64895 10.4633C5.21879 10.7899 4.66914 10.9532 4 10.9532V13.0245C4.66914 13.0245 5.21879 13.1952 5.64895 13.5367C6.09505 13.8634 6.31809 14.3534 6.31809 15.0067V19.9955C6.31809 20.6043 6.50131 21.0869 6.86774 21.4432C7.25011 21.8144 7.75993 22 8.39721 22H10.6436M13.3086 22H15.555C16.1923 22 16.7021 21.8144 17.0845 21.4432C17.4828 21.0869 17.6819 20.6043 17.6819 19.9955V15.0067C17.6819 14.3534 17.897 13.8634 18.3271 13.5367C18.7732 13.1952 19.3309 13.0245 20 13.0245V10.9532C19.3309 10.9532 18.7732 10.7899 18.3271 10.4633C17.897 10.1218 17.6819 9.63177 17.6819 8.99332V4.00446C17.6819 3.39569 17.4828 2.91314 17.0845 2.55679C16.7021 2.1856 16.1923 2 15.555 2H13.3086" stroke="#DCE5FF"/>
</svg>
