<svg width="158" height="23" viewBox="0 0 158 23" fill="none" xmlns="http://www.w3.org/2000/svg">
<path d="M1.776 -5.72205e-06H4.848V7.31999H4.968C5.224 6.64799 5.624 6.08799 6.168 5.63999C6.728 5.17599 7.496 4.94399 8.472 4.94399C9.768 4.94399 10.76 5.36799 11.448 6.21599C12.136 7.06399 12.48 8.27199 12.48 9.83999V17.76H9.408V10.152C9.408 9.25599 9.248 8.58399 8.928 8.13599C8.608 7.68799 8.08 7.46399 7.344 7.46399C7.024 7.46399 6.712 7.51199 6.408 7.60799C6.12 7.68799 5.856 7.81599 5.616 7.99199C5.392 8.15199 5.208 8.35999 5.064 8.61599C4.92 8.85599 4.848 9.14399 4.848 9.47999V17.76H1.776V-5.72205e-06ZM25.1014 17.76C24.4294 17.76 23.8934 17.568 23.4934 17.184C23.1094 16.784 22.8694 16.256 22.7734 15.6H22.6294C22.4214 16.416 21.9974 17.032 21.3574 17.448C20.7174 17.848 19.9254 18.048 18.9814 18.048C17.7014 18.048 16.7174 17.712 16.0294 17.04C15.3414 16.368 14.9974 15.472 14.9974 14.352C14.9974 13.056 15.4614 12.096 16.3894 11.472C17.3174 10.832 18.6374 10.512 20.3494 10.512H22.4854V9.59999C22.4854 8.89599 22.3014 8.35199 21.9334 7.96799C21.5654 7.58399 20.9734 7.39199 20.1574 7.39199C19.4374 7.39199 18.8534 7.55199 18.4054 7.87199C17.9734 8.17599 17.6054 8.54399 17.3014 8.97599L15.4774 7.34399C15.9414 6.62399 16.5574 6.04799 17.3254 5.61599C18.0934 5.16799 19.1094 4.94399 20.3734 4.94399C22.0694 4.94399 23.3574 5.32799 24.2374 6.09599C25.1174 6.86399 25.5574 7.96799 25.5574 9.40799V15.312H26.8054V17.76H25.1014ZM20.0134 15.816C20.7014 15.816 21.2854 15.664 21.7654 15.36C22.2454 15.056 22.4854 14.608 22.4854 14.016V12.36H20.5174C18.9174 12.36 18.1174 12.872 18.1174 13.896V14.304C18.1174 14.816 18.2774 15.2 18.5974 15.456C18.9334 15.696 19.4054 15.816 20.0134 15.816ZM34.2356 18.048C33.3076 18.048 32.4836 17.896 31.7636 17.592C31.0436 17.288 30.4356 16.848 29.9396 16.272C29.4596 15.696 29.0916 15.008 28.8356 14.208C28.5796 13.392 28.4516 12.48 28.4516 11.472C28.4516 10.464 28.5796 9.55999 28.8356 8.75999C29.0916 7.95999 29.4596 7.27999 29.9396 6.71999C30.4356 6.14399 31.0436 5.70399 31.7636 5.39999C32.4836 5.09599 33.3076 4.94399 34.2356 4.94399C35.4996 4.94399 36.5396 5.22399 37.3556 5.78399C38.1876 6.34399 38.7876 7.11999 39.1556 8.11199L36.6356 9.23999C36.4916 8.71199 36.2196 8.27999 35.8196 7.94399C35.4356 7.59199 34.9076 7.41599 34.2356 7.41599C33.3716 7.41599 32.7236 7.68799 32.2916 8.23199C31.8756 8.77599 31.6676 9.48799 31.6676 10.368V12.648C31.6676 13.528 31.8756 14.24 32.2916 14.784C32.7236 15.312 33.3716 15.576 34.2356 15.576C34.9716 15.576 35.5396 15.392 35.9396 15.024C36.3396 14.64 36.6516 14.168 36.8756 13.608L39.2276 14.736C38.8116 15.84 38.1796 16.672 37.3316 17.232C36.4836 17.776 35.4516 18.048 34.2356 18.048ZM41.5963 -5.72205e-06H44.6683V10.704H44.7883L46.4443 8.44799L49.2523 5.23199H52.7323L48.4123 10.08L53.1883 17.76H49.5403L46.3243 12.144L44.6683 13.944V17.76H41.5963V-5.72205e-06Z" fill="#EAF0FF"/>
<path d="M57.1129 18.024C56.4569 18.024 55.9689 17.864 55.6489 17.544C55.3449 17.208 55.1929 16.784 55.1929 16.272V15.84C55.1929 15.328 55.3449 14.904 55.6489 14.568C55.9689 14.232 56.4569 14.064 57.1129 14.064C57.7849 14.064 58.2729 14.232 58.5769 14.568C58.8809 14.904 59.0329 15.328 59.0329 15.84V16.272C59.0329 16.784 58.8809 17.208 58.5769 17.544C58.2729 17.864 57.7849 18.024 57.1129 18.024ZM57.1129 8.92799C56.4569 8.92799 55.9689 8.76799 55.6489 8.44799C55.3449 8.11199 55.1929 7.68799 55.1929 7.17599V6.74399C55.1929 6.23199 55.3449 5.80799 55.6489 5.47199C55.9689 5.13599 56.4569 4.96799 57.1129 4.96799C57.7849 4.96799 58.2729 5.13599 58.5769 5.47199C58.8809 5.80799 59.0329 6.23199 59.0329 6.74399V7.17599C59.0329 7.68799 58.8809 8.11199 58.5769 8.44799C58.2729 8.76799 57.7849 8.92799 57.1129 8.92799Z" fill="#4F46E5"/>
<path d="M62.7135 5.23199H65.7855V7.29599H65.8815C66.1055 6.57599 66.5295 6.00799 67.1535 5.59199C67.7775 5.15999 68.5055 4.94399 69.3375 4.94399C70.9375 4.94399 72.1535 5.51199 72.9855 6.64799C73.8335 7.76799 74.2575 9.37599 74.2575 11.472C74.2575 13.584 73.8335 15.208 72.9855 16.344C72.1535 17.48 70.9375 18.048 69.3375 18.048C68.5055 18.048 67.7775 17.832 67.1535 17.4C66.5455 16.968 66.1215 16.392 65.8815 15.672H65.7855V22.56H62.7135V5.23199ZM68.3535 15.504C69.1535 15.504 69.8015 15.24 70.2975 14.712C70.7935 14.184 71.0415 13.472 71.0415 12.576V10.416C71.0415 9.51999 70.7935 8.80799 70.2975 8.27999C69.8015 7.73599 69.1535 7.46399 68.3535 7.46399C67.6175 7.46399 67.0015 7.64799 66.5055 8.01599C66.0255 8.38399 65.7855 8.87199 65.7855 9.47999V13.464C65.7855 14.12 66.0255 14.624 66.5055 14.976C67.0015 15.328 67.6175 15.504 68.3535 15.504ZM80.1761 17.76C79.1201 17.76 78.3441 17.496 77.8481 16.968C77.3521 16.44 77.1041 15.696 77.1041 14.736V-5.72205e-06H80.1761V15.312H81.8321V17.76H80.1761ZM93.3748 17.76C92.7028 17.76 92.1668 17.568 91.7668 17.184C91.3828 16.784 91.1428 16.256 91.0468 15.6H90.9028C90.6948 16.416 90.2708 17.032 89.6308 17.448C88.9908 17.848 88.1988 18.048 87.2548 18.048C85.9748 18.048 84.9908 17.712 84.3028 17.04C83.6148 16.368 83.2708 15.472 83.2708 14.352C83.2708 13.056 83.7348 12.096 84.6628 11.472C85.5908 10.832 86.9108 10.512 88.6228 10.512H90.7588V9.59999C90.7588 8.89599 90.5748 8.35199 90.2068 7.96799C89.8388 7.58399 89.2468 7.39199 88.4308 7.39199C87.7108 7.39199 87.1268 7.55199 86.6788 7.87199C86.2468 8.17599 85.8788 8.54399 85.5748 8.97599L83.7508 7.34399C84.2148 6.62399 84.8308 6.04799 85.5988 5.61599C86.3668 5.16799 87.3828 4.94399 88.6468 4.94399C90.3428 4.94399 91.6308 5.32799 92.5108 6.09599C93.3908 6.86399 93.8308 7.96799 93.8308 9.40799V15.312H95.0788V17.76H93.3748ZM88.2868 15.816C88.9748 15.816 89.5588 15.664 90.0388 15.36C90.5188 15.056 90.7588 14.608 90.7588 14.016V12.36H88.7908C87.1908 12.36 86.3908 12.872 86.3908 13.896V14.304C86.3908 14.816 86.5508 15.2 86.8708 15.456C87.2068 15.696 87.6788 15.816 88.2868 15.816ZM101.383 17.76C100.327 17.76 99.5193 17.488 98.9593 16.944C98.4153 16.384 98.1433 15.592 98.1433 14.568V7.67999H96.2953V5.23199H97.2553C97.7193 5.23199 98.0313 5.12799 98.1913 4.91999C98.3673 4.69599 98.4553 4.36799 98.4553 3.93599V1.79999H101.215V5.23199H103.783V7.67999H101.215V15.312H103.591V17.76H101.383ZM107.002 7.65599H105.154V5.23199H107.002V3.43199C107.002 2.32799 107.29 1.47999 107.866 0.887994C108.458 0.295994 109.322 -5.72205e-06 110.458 -5.72205e-06H112.642V2.44799H110.074V5.23199H112.642V7.65599H110.074V17.76H107.002V7.65599ZM119.642 18.048C118.746 18.048 117.938 17.896 117.218 17.592C116.514 17.288 115.906 16.848 115.394 16.272C114.898 15.696 114.514 15.008 114.242 14.208C113.97 13.392 113.834 12.48 113.834 11.472C113.834 10.464 113.97 9.55999 114.242 8.75999C114.514 7.95999 114.898 7.27999 115.394 6.71999C115.906 6.14399 116.514 5.70399 117.218 5.39999C117.938 5.09599 118.746 4.94399 119.642 4.94399C120.538 4.94399 121.346 5.09599 122.066 5.39999C122.786 5.70399 123.394 6.14399 123.89 6.71999C124.402 7.27999 124.794 7.95999 125.066 8.75999C125.338 9.55999 125.474 10.464 125.474 11.472C125.474 12.48 125.338 13.392 125.066 14.208C124.794 15.008 124.402 15.696 123.89 16.272C123.394 16.848 122.786 17.288 122.066 17.592C121.346 17.896 120.538 18.048 119.642 18.048ZM119.642 15.576C120.458 15.576 121.098 15.328 121.562 14.832C122.026 14.336 122.258 13.608 122.258 12.648V10.32C122.258 9.37599 122.026 8.65599 121.562 8.15999C121.098 7.66399 120.458 7.41599 119.642 7.41599C118.842 7.41599 118.21 7.66399 117.746 8.15999C117.282 8.65599 117.05 9.37599 117.05 10.32V12.648C117.05 13.608 117.282 14.336 117.746 14.832C118.21 15.328 118.842 15.576 119.642 15.576ZM128.198 17.76V5.23199H131.27V7.82399H131.39C131.47 7.48799 131.59 7.16799 131.75 6.86399C131.926 6.54399 132.15 6.26399 132.422 6.02399C132.694 5.78399 133.014 5.59199 133.382 5.44799C133.766 5.30399 134.206 5.23199 134.702 5.23199H135.374V8.13599H134.414C133.374 8.13599 132.59 8.28799 132.062 8.59199C131.534 8.89599 131.27 9.39199 131.27 10.08V17.76H128.198ZM137.62 17.76V5.23199H140.692V7.31999H140.812C141.052 6.66399 141.436 6.10399 141.964 5.63999C142.492 5.17599 143.228 4.94399 144.172 4.94399C145.036 4.94399 145.78 5.15199 146.404 5.56799C147.028 5.98399 147.492 6.61599 147.796 7.46399H147.844C148.068 6.75999 148.508 6.16799 149.164 5.68799C149.836 5.19199 150.676 4.94399 151.684 4.94399C152.916 4.94399 153.86 5.36799 154.516 6.21599C155.188 7.06399 155.524 8.27199 155.524 9.83999V17.76H152.452V10.152C152.452 8.35999 151.78 7.46399 150.436 7.46399C150.132 7.46399 149.836 7.51199 149.548 7.60799C149.276 7.68799 149.028 7.81599 148.804 7.99199C148.596 8.15199 148.428 8.35999 148.3 8.61599C148.172 8.85599 148.108 9.14399 148.108 9.47999V17.76H145.036V10.152C145.036 8.35999 144.364 7.46399 143.02 7.46399C142.732 7.46399 142.444 7.51199 142.156 7.60799C141.884 7.68799 141.636 7.81599 141.412 7.99199C141.204 8.15199 141.028 8.35999 140.884 8.61599C140.756 8.85599 140.692 9.14399 140.692 9.47999V17.76H137.62Z" fill="#B7C2E1"/>
</svg>
