<svg width="16" height="16" viewBox="0 0 16 16" fill="none" xmlns="http://www.w3.org/2000/svg">
<path d="M12.6602 1.51465C12.9085 2.35147 12.6916 2.94222 12.6406 3.06543L12.5156 3.36719L12.7422 3.60352C13.219 4.09976 13.5 4.73133 13.5 5.52246C13.5 7.0297 13.033 7.86081 12.4219 8.35547C11.7829 8.87246 10.9038 9.09119 9.95312 9.19336L8.78223 9.31934L9.68652 10.0742C9.8691 10.2266 10.1006 10.5766 10.1006 11.2568C10.1006 11.8212 10.0963 12.3303 10.0928 12.7334C10.0899 13.0602 10.0879 13.3218 10.0869 13.4844H6.75879C6.75761 13.3654 6.7556 13.1861 6.75293 12.9775C6.74936 12.6986 6.74609 12.3582 6.74609 12.0117V11.3975L6.14453 11.5225C5.0431 11.7506 4.45852 11.5112 4.16113 11.2939C4.07828 11.2334 4.01105 11.17 3.95801 11.1104C4.31095 11.3772 4.6983 11.5048 5.0752 11.5381C5.67003 11.5905 6.20131 11.4084 6.49121 11.2803L6.74805 11.167L6.78418 10.8887C6.8422 10.451 7.02217 10.1916 7.16309 10.0713L8.05469 9.31055L6.88867 9.19336C5.94861 9.09837 5.0742 8.88019 4.4375 8.3623C3.82726 7.86591 3.36036 7.03028 3.36035 5.52246C3.36035 4.73644 3.65183 4.10099 4.12207 3.59863L4.3418 3.36328L4.21875 3.06543C4.16767 2.9418 3.95113 2.35088 4.19922 1.51465C4.23519 1.51958 4.27573 1.52407 4.32031 1.5332C4.63779 1.59826 5.1804 1.78482 5.97168 2.30371L6.15625 2.42578L6.37109 2.37012C7.04208 2.19592 7.73424 2.10727 8.42969 2.10645C9.12482 2.10645 9.8351 2.19917 10.4883 2.37012L10.7031 2.42578L10.8887 2.30469C11.68 1.78579 12.2225 1.59826 12.54 1.5332C12.5842 1.52416 12.6244 1.51956 12.6602 1.51465Z" stroke="#DCE5FF"/>
</svg>
