<svg width="24" height="24" viewBox="0 0 24 24" fill="none" xmlns="http://www.w3.org/2000/svg">
<g clip-path="url(#clip0_8_162)">
<mask id="path-1-inside-1_8_162" fill="white">
<path d="M5.21106 4.35866C6.45684 3.2949 7.231 2.82883 8.78341 2.29616L10.2545 4.48471C10.7513 4.37007 11.2539 4.30654 11.755 4.2927L12.613 1.79241C14.2503 1.90513 15.1187 2.15427 16.5972 2.85926L16.0824 5.48726C16.4946 5.749 16.8832 6.05237 17.2434 6.39455L19.6623 5.21114C20.7403 6.44861 21.1778 7.23939 21.7248 8.78349L19.4517 10.3112C19.554 10.7786 19.6117 11.2503 19.6251 11.721L22.2285 12.613C22.1158 14.2504 21.8659 15.1191 21.1608 16.5977L18.4256 16.0614C18.1797 16.4478 17.8994 16.8151 17.5826 17.156L18.8093 19.6615C17.5718 20.7396 16.7811 21.177 15.2369 21.724L13.6796 19.4094C13.226 19.5132 12.7677 19.5724 12.3102 19.5922L11.4079 22.2286C9.77479 22.0999 8.89757 21.882 7.42319 21.1609L7.95153 18.4608C7.55064 18.2138 7.17088 17.9279 6.81734 17.6057L4.35858 18.8099C3.29485 17.5641 2.82873 16.7898 2.29608 15.2375L4.52955 13.7349C4.41327 13.252 4.3449 12.7636 4.32428 12.2758L1.79185 11.4071C1.92056 9.77424 2.13901 8.89754 2.86003 7.42327L5.45348 7.93088C5.71594 7.50384 6.02238 7.10039 6.37003 6.72738L5.21106 4.35866Z"/>
</mask>
<path d="M5.21106 4.35866L4.56169 3.59818L3.97204 4.10168L4.31281 4.79815L5.21106 4.35866ZM8.78341 2.29616L9.61336 1.73831L9.18506 1.10111L8.45887 1.35029L8.78341 2.29616ZM10.2545 4.48471L9.42452 5.04256L9.80852 5.61386L10.4793 5.45911L10.2545 4.48471ZM11.755 4.2927L11.7826 5.29232L12.4758 5.27317L12.7009 4.61727L11.755 4.2927ZM12.613 1.79241L12.6816 0.794771L11.9161 0.742072L11.6671 1.46784L12.613 1.79241ZM16.5972 2.85926L17.5785 3.05147L17.7276 2.29041L17.0276 1.95662L16.5972 2.85926ZM16.0824 5.48726L15.1011 5.29505L14.9698 5.96529L15.5463 6.33142L16.0824 5.48726ZM17.2434 6.39455L16.5546 7.1195L17.0585 7.59828L17.6828 7.29281L17.2434 6.39455ZM19.6623 5.21114L20.4163 4.55427L19.9122 3.97561L19.2228 4.31288L19.6623 5.21114ZM21.7248 8.78349L22.2826 9.61345L22.9264 9.18076L22.6674 8.44958L21.7248 8.78349ZM19.4517 10.3112L18.8939 9.48127L18.3294 9.86065L18.4748 10.525L19.4517 10.3112ZM19.6251 11.721L18.6255 11.7495L18.6453 12.4424L19.301 12.667L19.6251 11.721ZM22.2285 12.613L23.2261 12.6817L23.2789 11.9159L22.5526 11.667L22.2285 12.613ZM21.1608 16.5977L20.9684 17.579L21.7296 17.7283L22.0634 17.0281L21.1608 16.5977ZM18.4256 16.0614L18.618 15.0801L17.9485 14.9488L17.5821 15.5244L18.4256 16.0614ZM17.5826 17.156L16.8501 16.4752L16.3823 16.9785L16.6845 17.5957L17.5826 17.156ZM18.8093 19.6615L19.4662 20.4155L20.045 19.9112L19.7074 19.2218L18.8093 19.6615ZM15.2369 21.724L14.4073 22.2822L14.8401 22.9255L15.5708 22.6666L15.2369 21.724ZM13.6796 19.4094L14.5093 18.8511L14.1258 18.2813L13.4564 18.4346L13.6796 19.4094ZM12.3102 19.5922L12.267 18.5931L11.5851 18.6226L11.3641 19.2684L12.3102 19.5922ZM11.4079 22.2286L11.3293 23.2255L12.1028 23.2864L12.354 22.5524L11.4079 22.2286ZM7.42319 21.1609L6.4418 20.9689L6.29443 21.722L6.98385 22.0592L7.42319 21.1609ZM7.95153 18.4608L8.93292 18.6528L9.06597 17.9728L8.47606 17.6094L7.95153 18.4608ZM6.81734 17.6057L7.49096 16.8666L6.98831 16.4085L6.37751 16.7076L6.81734 17.6057ZM4.35858 18.8099L3.5981 19.4592L4.1018 20.0491L4.79842 19.7079L4.35858 18.8099ZM2.29608 15.2375L1.73788 14.4078L1.10114 14.8362L1.35021 15.5621L2.29608 15.2375ZM4.52955 13.7349L5.08775 14.5646L5.66448 14.1766L5.50176 13.5008L4.52955 13.7349ZM4.32428 12.2758L5.32339 12.2336L5.29454 11.5515L4.64876 11.3299L4.32428 12.2758ZM1.79185 11.4071L0.794938 11.3285L0.734014 12.1014L1.46737 12.353L1.79185 11.4071ZM2.86003 7.42327L3.05211 6.44189L2.2989 6.29447L1.96171 6.98393L2.86003 7.42327ZM5.45348 7.93088L5.26139 8.91226L5.94218 9.04551L6.30542 8.45451L5.45348 7.93088ZM6.37003 6.72738L7.10157 7.40918L7.57065 6.90588L7.26827 6.28789L6.37003 6.72738ZM5.21106 4.35866L5.86042 5.11914C7.01925 4.12962 7.68488 3.73032 9.10796 3.24203L8.78341 2.29616L8.45887 1.35029C6.77713 1.92733 5.89442 2.46018 4.56169 3.59818L5.21106 4.35866ZM8.78341 2.29616L7.95347 2.85401L9.42452 5.04256L10.2545 4.48471L11.0844 3.92686L9.61336 1.73831L8.78341 2.29616ZM10.2545 4.48471L10.4793 5.45911C10.911 5.3595 11.3475 5.30434 11.7826 5.29232L11.755 4.2927L11.7274 3.29308C11.1603 3.30874 10.5916 3.38064 10.0296 3.5103L10.2545 4.48471ZM11.755 4.2927L12.7009 4.61727L13.5588 2.11698L12.613 1.79241L11.6671 1.46784L10.8091 3.96813L11.755 4.2927ZM12.613 1.79241L12.5443 2.79005C14.0455 2.8934 14.7918 3.10627 16.1668 3.76189L16.5972 2.85926L17.0276 1.95662C15.4455 1.20226 14.455 0.916856 12.6816 0.794771L12.613 1.79241ZM16.5972 2.85926L15.6158 2.66705L15.1011 5.29505L16.0824 5.48726L17.0638 5.67947L17.5785 3.05147L16.5972 2.85926ZM16.0824 5.48726L15.5463 6.33142C15.9034 6.55817 16.241 6.82154 16.5546 7.1195L17.2434 6.39455L17.9322 5.66961C17.5255 5.28321 17.0858 4.93982 16.6185 4.6431L16.0824 5.48726ZM17.2434 6.39455L17.6828 7.29281L20.1017 6.10939L19.6623 5.21114L19.2228 4.31288L16.8039 5.4963L17.2434 6.39455ZM19.6623 5.21114L18.9083 5.86801C19.8965 7.00239 20.2733 7.68107 20.7822 9.1174L21.7248 8.78349L22.6674 8.44958C22.0822 6.79769 21.5841 5.89483 20.4163 4.55427L19.6623 5.21114ZM21.7248 8.78349L21.1669 7.95353L18.8939 9.48127L19.4517 10.3112L20.0095 11.1412L22.2826 9.61345L21.7248 8.78349ZM19.4517 10.3112L18.4748 10.525C18.5638 10.9318 18.6139 11.3415 18.6255 11.7495L19.6251 11.721L20.6247 11.6925C20.6095 11.1591 20.5441 10.6254 20.4286 10.0974L19.4517 10.3112ZM19.6251 11.721L19.301 12.667L21.9044 13.559L22.2285 12.613L22.5526 11.667L19.9493 10.775L19.6251 11.721ZM22.2285 12.613L21.2309 12.5444C21.1275 14.0453 20.914 14.7919 20.2582 16.1673L21.1608 16.5977L22.0634 17.0281C22.8177 15.4463 23.104 14.4555 23.2261 12.6817L22.2285 12.613ZM21.1608 16.5977L21.3532 15.6164L18.618 15.0801L18.4256 16.0614L18.2332 17.0427L20.9684 17.579L21.1608 16.5977ZM18.4256 16.0614L17.5821 15.5244C17.3667 15.8626 17.1232 16.1813 16.8501 16.4752L17.5826 17.156L18.3151 17.8367C18.6756 17.4488 18.9926 17.0329 19.2692 16.5985L18.4256 16.0614ZM17.5826 17.156L16.6845 17.5957L17.9112 20.1012L18.8093 19.6615L19.7074 19.2218L18.4807 16.7162L17.5826 17.156ZM18.8093 19.6615L18.1524 18.9075C17.018 19.8958 16.3394 20.2726 14.903 20.7814L15.2369 21.724L15.5708 22.6666C17.2228 22.0814 18.1256 21.5834 19.4662 20.4155L18.8093 19.6615ZM15.2369 21.724L16.0666 21.1658L14.5093 18.8511L13.6796 19.4094L12.8499 19.9676L14.4073 22.2822L15.2369 21.724ZM13.6796 19.4094L13.4564 18.4346C13.0651 18.5242 12.6673 18.5758 12.267 18.5931L12.3102 19.5922L12.3534 20.5913C12.8681 20.569 13.3868 20.5023 13.9028 20.3841L13.6796 19.4094ZM12.3102 19.5922L11.3641 19.2684L10.4618 21.9048L11.4079 22.2286L12.354 22.5524L13.2563 19.916L12.3102 19.5922ZM11.4079 22.2286L11.4864 21.2317C9.96734 21.112 9.21408 20.9236 7.86253 20.2626L7.42319 21.1609L6.98385 22.0592C8.58105 22.8403 9.58224 23.0878 11.3293 23.2255L11.4079 22.2286ZM7.42319 21.1609L8.40458 21.3529L8.93292 18.6528L7.95153 18.4608L6.97014 18.2687L6.4418 20.9689L7.42319 21.1609ZM7.95153 18.4608L8.47606 17.6094C8.12849 17.3952 7.79861 17.147 7.49096 16.8666L6.81734 17.6057L6.14372 18.3447C6.54316 18.7088 6.9728 19.0323 7.42699 19.3121L7.95153 18.4608ZM6.81734 17.6057L6.37751 16.7076L3.91874 17.9118L4.35858 18.8099L4.79842 19.7079L7.25718 18.5037L6.81734 17.6057ZM4.35858 18.8099L5.11906 18.1605C4.12958 17.0017 3.73023 16.336 3.24195 14.9129L2.29608 15.2375L1.35021 15.5621C1.92724 17.2437 2.46012 18.1265 3.5981 19.4592L4.35858 18.8099ZM2.29608 15.2375L2.85428 16.0672L5.08775 14.5646L4.52955 13.7349L3.97135 12.9052L1.73788 14.4078L2.29608 15.2375ZM4.52955 13.7349L5.50176 13.5008C5.40054 13.0804 5.34126 12.6562 5.32339 12.2336L4.32428 12.2758L3.32517 12.3181C3.34855 12.8709 3.42601 13.4236 3.55733 13.969L4.52955 13.7349ZM4.32428 12.2758L4.64876 11.3299L2.11632 10.4612L1.79185 11.4071L1.46737 12.353L3.9998 13.2217L4.32428 12.2758ZM1.79185 11.4071L2.78875 11.4857C2.90845 9.96717 3.09725 9.21436 3.75835 7.86261L2.86003 7.42327L1.96171 6.98393C1.18077 8.58072 0.932662 9.58131 0.794938 11.3285L1.79185 11.4071ZM2.86003 7.42327L2.66794 8.40465L5.26139 8.91226L5.45348 7.93088L5.64556 6.9495L3.05211 6.44189L2.86003 7.42327ZM5.45348 7.93088L6.30542 8.45451C6.53319 8.08393 6.79931 7.73349 7.10157 7.40918L6.37003 6.72738L5.63849 6.04558C5.24544 6.4673 4.8987 6.92376 4.60153 7.40725L5.45348 7.93088ZM6.37003 6.72738L7.26827 6.28789L6.1093 3.91916L5.21106 4.35866L4.31281 4.79815L5.47178 7.16688L6.37003 6.72738Z" fill="#DCE5FF" mask="url(#path-1-inside-1_8_162)"/>
</g>
<defs>
<clipPath id="clip0_8_162">
<rect width="24" height="24" fill="white"/>
</clipPath>
</defs>
</svg>
