<svg width="24" height="24" viewBox="0 0 24 24" fill="none" xmlns="http://www.w3.org/2000/svg">
<g clip-path="url(#clip0_8_162)">
<path d="M5.21106 4.35866L4.88638 3.97842L4.59155 4.23017L4.76194 4.57841L5.21106 4.35866ZM8.78341 2.29616L9.19838 2.01723L8.98424 1.69864L8.62114 1.82322L8.78341 2.29616ZM10.2545 4.48471L9.83949 4.76363L10.0315 5.04928L10.3669 4.97191L10.2545 4.48471ZM11.755 4.2927L11.7688 4.79251L12.1154 4.78293L12.2279 4.45498L11.755 4.2927ZM12.613 1.79241L12.6473 1.29359L12.2646 1.26724L12.14 1.63013L12.613 1.79241ZM16.5972 2.85926L17.0878 2.95536L17.1624 2.57483L16.8124 2.40794L16.5972 2.85926ZM16.0824 5.48726L15.5918 5.39116L15.5261 5.72627L15.8144 5.90934L16.0824 5.48726ZM17.2434 6.39455L16.899 6.75703L17.1509 6.99642L17.4631 6.84368L17.2434 6.39455ZM19.6623 5.21114L20.0393 4.8827L19.7872 4.59337L19.4425 4.76201L19.6623 5.21114ZM21.7248 8.78349L22.0037 9.19847L22.3256 8.98212L22.1961 8.61653L21.7248 8.78349ZM19.4517 10.3112L19.1728 9.89625L18.8905 10.0859L18.9632 10.4181L19.4517 10.3112ZM19.6251 11.721L19.1253 11.7353L19.1352 12.0817L19.463 12.194L19.6251 11.721ZM22.2285 12.613L22.7273 12.6474L22.7537 12.2645L22.3906 12.14L22.2285 12.613ZM21.1608 16.5977L21.0646 17.0884L21.4452 17.163L21.6121 16.8129L21.1608 16.5977ZM18.4256 16.0614L18.5218 15.5708L18.1871 15.5051L18.0039 15.7929L18.4256 16.0614ZM17.5826 17.156L17.2164 16.8156L16.9825 17.0672L17.1335 17.3758L17.5826 17.156ZM18.8093 19.6615L19.1377 20.0385L19.4271 19.7864L19.2584 19.4416L18.8093 19.6615ZM15.2369 21.724L14.8221 22.0031L15.0385 22.3247L15.4039 22.1953L15.2369 21.724ZM13.6796 19.4094L14.0944 19.1302L13.9027 18.8453L13.568 18.922L13.6796 19.4094ZM12.3102 19.5922L12.2886 19.0927L11.9476 19.1074L11.8371 19.4303L12.3102 19.5922ZM11.4079 22.2286L11.3686 22.727L11.7553 22.7575L11.8809 22.3905L11.4079 22.2286ZM7.42319 21.1609L6.9325 21.0649L6.85881 21.4415L7.20352 21.6101L7.42319 21.1609ZM7.95153 18.4608L8.44222 18.5568L8.50875 18.2168L8.2138 18.0351L7.95153 18.4608ZM6.81734 17.6057L7.15415 17.2361L6.90282 17.0071L6.59743 17.1566L6.81734 17.6057ZM4.35858 18.8099L3.97834 19.1345L4.23019 19.4295L4.5785 19.2589L4.35858 18.8099ZM2.29608 15.2375L2.01698 14.8227L1.69861 15.0368L1.82315 15.3998L2.29608 15.2375ZM4.52955 13.7349L4.80865 14.1497L5.09701 13.9557L5.01566 13.6178L4.52955 13.7349ZM4.32428 12.2758L4.82383 12.2547L4.80941 11.9137L4.48652 11.8029L4.32428 12.2758ZM1.79185 11.4071L1.29339 11.3678L1.26293 11.7543L1.62961 11.8801L1.79185 11.4071ZM2.86003 7.42327L2.95607 6.93258L2.57946 6.85887L2.41087 7.2036L2.86003 7.42327ZM5.45348 7.93088L5.35743 8.42157L5.69783 8.48819L5.87945 8.19269L5.45348 7.93088ZM6.37003 6.72738L6.7358 7.06828L6.97034 6.81663L6.81915 6.50763L6.37003 6.72738ZM5.21106 4.35866L5.53574 4.7389C6.73804 3.71226 7.45794 3.27957 8.94569 2.76909L8.78341 2.29616L8.62114 1.82322C7.00406 2.37808 6.17563 2.87754 4.88638 3.97842L5.21106 4.35866ZM8.78341 2.29616L8.36844 2.57508L9.83949 4.76363L10.2545 4.48471L10.6694 4.20578L9.19838 2.01723L8.78341 2.29616ZM10.2545 4.48471L10.3669 4.97191C10.8312 4.86478 11.3007 4.80544 11.7688 4.79251L11.755 4.2927L11.7412 3.79289C11.2071 3.80764 10.6715 3.87535 10.1421 3.9975L10.2545 4.48471ZM11.755 4.2927L12.2279 4.45498L13.0859 1.9547L12.613 1.79241L12.14 1.63013L11.2821 4.13041L11.755 4.2927ZM12.613 1.79241L12.5786 2.29123C14.1479 2.39926 14.9552 2.63027 16.382 3.31058L16.5972 2.85926L16.8124 2.40794C15.2821 1.67826 14.3526 1.41099 12.6473 1.29359L12.613 1.79241ZM16.5972 2.85926L16.1065 2.76315L15.5918 5.39116L16.0824 5.48726L16.5731 5.58337L17.0878 2.95536L16.5972 2.85926ZM16.0824 5.48726L15.8144 5.90934C16.199 6.15358 16.5621 6.43696 16.899 6.75703L17.2434 6.39455L17.5878 6.03208C17.2044 5.66779 16.7902 5.34441 16.3505 5.06518L16.0824 5.48726ZM17.2434 6.39455L17.4631 6.84368L19.882 5.66027L19.6623 5.21114L19.4425 4.76201L17.0236 5.94542L17.2434 6.39455ZM19.6623 5.21114L19.2853 5.53957C20.3184 6.7255 20.7256 7.46023 21.2535 8.95045L21.7248 8.78349L22.1961 8.61653C21.63 7.01854 21.1622 6.17172 20.0393 4.8827L19.6623 5.21114ZM21.7248 8.78349L21.4458 8.36851L19.1728 9.89625L19.4517 10.3112L19.7306 10.7262L22.0037 9.19847L21.7248 8.78349ZM19.4517 10.3112L18.9632 10.4181C19.0589 10.8552 19.1128 11.2959 19.1253 11.7353L19.6251 11.721L20.1249 11.7068C20.1106 11.2047 20.049 10.702 19.9401 10.2043L19.4517 10.3112ZM19.6251 11.721L19.463 12.194L22.0664 13.086L22.2285 12.613L22.3906 12.14L19.7872 11.248L19.6251 11.721ZM22.2285 12.613L21.7297 12.5787C21.6217 14.1479 21.39 14.9555 20.7095 16.3825L21.1608 16.5977L21.6121 16.8129C22.3418 15.2827 22.6099 14.353 22.7273 12.6474L22.2285 12.613ZM21.1608 16.5977L21.257 16.1071L18.5218 15.5708L18.4256 16.0614L18.3294 16.5521L21.0646 17.0884L21.1608 16.5977ZM18.4256 16.0614L18.0039 15.7929C17.7732 16.1552 17.5113 16.4982 17.2164 16.8156L17.5826 17.156L17.9489 17.4963C18.2875 17.1319 18.5861 16.7403 18.8474 16.33L18.4256 16.0614ZM17.5826 17.156L17.1335 17.3758L18.3602 19.8813L18.8093 19.6615L19.2584 19.4416L18.0317 16.9361L17.5826 17.156ZM18.8093 19.6615L18.4809 19.2845C17.2949 20.3177 16.5602 20.7248 15.07 21.2527L15.2369 21.724L15.4039 22.1953C17.0019 21.6292 17.8487 21.1615 19.1377 20.0385L18.8093 19.6615ZM15.2369 21.724L15.6518 21.4449L14.0944 19.1302L13.6796 19.4094L13.2647 19.6885L14.8221 22.0031L15.2369 21.724ZM13.6796 19.4094L13.568 18.922C13.1456 19.0187 12.7175 19.0741 12.2886 19.0927L12.3102 19.5922L12.3318 20.0917C12.8179 20.0707 13.3064 20.0078 13.7912 19.8968L13.6796 19.4094ZM12.3102 19.5922L11.8371 19.4303L10.9348 22.0667L11.4079 22.2286L11.8809 22.3905L12.7832 19.7541L12.3102 19.5922ZM11.4079 22.2286L11.4472 21.7301C9.87107 21.6059 9.05583 21.4028 7.64286 20.7117L7.42319 21.1609L7.20352 21.6101C8.73931 22.3612 9.67851 22.5938 11.3686 22.727L11.4079 22.2286ZM7.42319 21.1609L7.91389 21.2569L8.44222 18.5568L7.95153 18.4608L7.46083 18.3647L6.9325 21.0649L7.42319 21.1609ZM7.95153 18.4608L8.2138 18.0351C7.83957 17.8045 7.48475 17.5374 7.15415 17.2361L6.81734 17.6057L6.48053 17.9752C6.85702 18.3183 7.26172 18.623 7.68926 18.8864L7.95153 18.4608ZM6.81734 17.6057L6.59743 17.1566L4.13866 18.3608L4.35858 18.8099L4.5785 19.2589L7.03726 18.0547L6.81734 17.6057ZM4.35858 18.8099L4.73882 18.4852C3.71222 17.2829 3.27948 16.5629 2.76902 15.0752L2.29608 15.2375L1.82315 15.3998C2.37799 17.0168 2.87749 17.8453 3.97834 19.1345L4.35858 18.8099ZM2.29608 15.2375L2.57518 15.6524L4.80865 14.1497L4.52955 13.7349L4.25045 13.32L2.01698 14.8227L2.29608 15.2375ZM4.52955 13.7349L5.01566 13.6178C4.90691 13.1662 4.84308 12.7099 4.82383 12.2547L4.32428 12.2758L3.82473 12.297C3.84673 12.8172 3.91964 13.3378 4.04344 13.8519L4.52955 13.7349ZM4.32428 12.2758L4.48652 11.8029L1.95409 10.9342L1.79185 11.4071L1.62961 11.8801L4.16204 12.7488L4.32428 12.2758ZM1.79185 11.4071L2.2903 11.4464C2.4145 9.8707 2.61813 9.05595 3.30919 7.64294L2.86003 7.42327L2.41087 7.2036C1.65989 8.73913 1.42661 9.67778 1.29339 11.3678L1.79185 11.4071ZM2.86003 7.42327L2.76399 7.91396L5.35743 8.42157L5.45348 7.93088L5.54952 7.44019L2.95607 6.93258L2.86003 7.42327ZM5.45348 7.93088L5.87945 8.19269C6.12457 7.79389 6.41085 7.41694 6.7358 7.06828L6.37003 6.72738L6.00426 6.38648C5.63391 6.78385 5.30732 7.2138 5.0275 7.66907L5.45348 7.93088ZM6.37003 6.72738L6.81915 6.50763L5.66018 4.13891L5.21106 4.35866L4.76194 4.57841L5.92091 6.94713L6.37003 6.72738Z" fill="#DCE5FF"/>
</g>
<defs>
<clipPath id="clip0_8_162">
<rect width="24" height="24" fill="white"/>
</clipPath>
</defs>
</svg>
